<svg xmlns="http://www.w3.org/2000/svg" width="156" height="140" viewBox="0 0 156 140">
    <g filter="url(#filter0_d)">
        <path d="M20 10h50c27.614 0 50 22.386 50 50s-22.386 50-50 50H20V10z" fill="#7B42F6"/>
    </g>
    <path d="M20 60l50-50c12.534 0 23.991 4.612 32.767 12.232C102.765 22.244 90.177 34.833 65 60c25.178 25.167 37.766 37.757 37.765 37.77C93.99 105.388 82.533 110 70 110L20 60z" fill="url(#paint0_linear)"/>
    <path d="M102.768 22.233C113.325 31.4 120 44.92 120 60c0 15.08-6.676 28.602-17.234 37.769C102.767 97.756 90.178 85.167 65 60l37.768-37.767z" fill="url(#paint1_linear)"/>
    <path d="M136.184 27V10.09h-3.012v7.031h-8.227V10.09h-3.023V27h3.023v-7.336h8.227V27h3.012zm10.429.281c1.102 0 2.098-.164 3-.492l1.407 1.922h2.964l-2.273-3.082c1.922-1.488 2.93-3.961 2.93-7.078 0-5.403-3.106-8.742-8.028-8.742-4.91 0-8.015 3.375-8.015 8.742 0 5.367 3.058 8.73 8.015 8.73zm0-2.531c-3.035 0-4.957-2.426-4.957-6.2 0-3.784 1.922-6.21 4.957-6.21 3.047 0 4.981 2.426 4.981 6.21 0 2.028-.586 3.692-1.653 4.735l-1.16-1.582h-2.965l2.122 2.86a4.763 4.763 0 01-1.325.187z" fill="#3672F8"/>
    <defs>
        <linearGradient id="paint0_linear" x1="20" y1="60" x2="120.225" y2="60" gradientUnits="userSpaceOnUse">
            <stop stop-color="#4899F7"/>
            <stop offset="1" stop-color="#2457F5"/>
        </linearGradient>
        <linearGradient id="paint1_linear" x1="65" y1="22.233" x2="134.689" y2="58.517" gradientUnits="userSpaceOnUse">
            <stop stop-color="#9DE1E5"/>
            <stop offset="1" stop-color="#B8DFB2"/>
        </linearGradient>
        <filter id="filter0_d" x="0" y="0" width="140" height="140" filterUnits="userSpaceOnUse" color-interpolation-filters="sRGB">
            <feFlood flood-opacity="0" result="BackgroundImageFix"/>
            <feColorMatrix in="SourceAlpha" values="0 0 0 0 0 0 0 0 0 0 0 0 0 0 0 0 0 0 127 0"/>
            <feOffset dy="10"/>
            <feGaussianBlur stdDeviation="10"/>
            <feColorMatrix values="0 0 0 0 0 0 0 0 0 0 0 0 0 0 0 0 0 0 0.25 0"/>
            <feBlend in2="BackgroundImageFix" result="effect1_dropShadow"/>
            <feBlend in="SourceGraphic" in2="effect1_dropShadow" result="shape"/>
        </filter>
    </defs>
</svg>
