<svg width="18" height="18" viewBox="0 0 18 18" xmlns="http://www.w3.org/2000/svg">
  <path d="M10.125 0h-2.25v2.25h2.25V0zM16.08 3.433l-1.59-1.592-1.591 1.59 1.59 1.593 1.592-1.591zM18 7.875h-2.25v2.25H18v-2.25zM12.977 14.647l1.592 1.59 1.59-1.591-1.591-1.59-1.59 1.59zM10.125 15.75h-2.25V18h2.25v-2.25zM1.762 14.567l1.59 1.592 1.592-1.59-1.59-1.592-1.592 1.59zM2.25 7.875H0v2.25h2.25v-2.25zM5.023 3.51L3.43 1.92l-1.59 1.592 1.591 1.59 1.59-1.592z" fill="#7D8FFF"/>
  <path d="M9 4.5A4.513 4.513 0 004.5 9c0 2.475 2.025 4.5 4.5 4.5s4.5-2.025 4.5-4.5S11.475 4.5 9 4.5z" fill="#546BFB"/>
</svg>